<svg id="svg" version="1.1" xmlns="http://www.w3.org/2000/svg" xmlns:xlink="http://www.w3.org/1999/xlink" viewBox="129.93 70.27 145.05 251.87">
    <g id="svgg">
        <path id="path0" d="M201.233 71.034 C 198.241 73.552,192.773 83.390,190.172 90.936 C 188.212 96.625,188.547 96.554,183.200 92.406 C 176.428 87.152,163.604 82.919,157.148 83.807 C 153.913 84.252,154.132 84.947,159.077 89.915 C 162.161 93.013,163.964 95.224,165.369 97.629 C 166.451 99.483,167.593 101.424,167.905 101.942 C 168.217 102.460,169.672 103.423,171.137 104.082 C 177.358 106.882,183.358 111.903,185.990 116.512 C 187.991 120.016,187.468 119.916,180.867 115.540 C 178.594 114.033,176.629 112.800,176.501 112.800 C 176.372 112.800,174.992 112.011,173.434 111.047 C 171.875 110.083,169.796 108.889,168.812 108.394 C 167.829 107.899,166.569 107.189,166.012 106.815 C 165.456 106.442,163.738 105.296,162.195 104.268 L 159.389 102.400 154.771 102.400 C 147.438 102.400,147.328 102.873,153.529 107.738 C 156.037 109.706,159.900 113.855,160.762 115.506 C 161.397 116.723,161.478 116.708,153.000 116.945 C 145.644 117.151,141.096 117.831,138.400 119.127 C 136.053 120.255,136.387 120.845,140.685 123.160 C 152.602 129.578,162.590 138.923,158.500 139.828 C 151.896 141.291,148.101 142.841,143.028 146.147 C 137.212 149.939,137.453 151.032,144.230 151.593 C 153.354 152.349,162.425 155.243,168.300 159.272 C 170.709 160.925,170.518 161.503,166.700 164.105 C 129.824 189.241,118.164 252.186,143.417 289.800 C 171.179 331.150,228.577 333.188,258.640 293.891 C 270.169 278.821,274.939 263.721,274.968 242.200 C 275.013 208.803,261.837 180.479,238.707 164.251 C 234.705 161.442,234.512 160.910,236.900 159.272 C 242.950 155.123,251.248 152.416,260.464 151.587 C 265.371 151.145,266.000 150.968,266.000 150.032 C 266.000 147.790,256.048 142.101,248.947 140.285 C 244.678 139.193,244.539 138.885,246.960 135.913 C 250.414 131.672,256.781 126.928,263.978 123.231 C 266.141 122.120,268.015 120.939,268.142 120.606 C 268.839 118.791,261.791 117.189,251.605 116.848 C 245.437 116.641,244.190 116.499,244.093 115.992 C 243.908 115.023,248.009 110.375,251.447 107.659 C 256.864 103.377,256.615 103.644,255.885 102.913 C 255.377 102.406,254.276 102.267,250.499 102.238 L 245.751 102.200 243.176 104.127 C 239.888 106.587,235.288 109.600,234.821 109.600 C 234.623 109.600,233.951 110.029,233.327 110.554 C 232.704 111.079,231.499 111.799,230.650 112.153 C 229.022 112.834,227.588 113.686,222.329 117.100 C 217.784 120.051,217.214 119.865,219.436 116.157 C 222.064 111.770,227.802 107.022,233.200 104.767 C 236.679 103.314,237.158 102.865,238.869 99.463 C 241.003 95.218,242.910 92.701,247.078 88.625 C 251.649 84.156,251.472 83.803,244.809 84.109 C 237.020 84.467,229.017 87.456,222.420 92.472 C 216.441 97.018,217.181 97.178,214.999 90.862 C 212.770 84.412,208.709 76.710,205.316 72.500 C 203.309 70.009,202.708 69.793,201.233 71.034 M203.055 83.106 C 206.539 85.356,213.458 108.995,210.275 107.773 C 209.347 107.417,206.930 102.725,205.374 98.259 C 202.734 90.680,202.447 90.692,199.627 98.486 C 197.109 105.445,195.728 108.000,194.486 108.000 C 192.967 108.000,195.476 96.245,198.427 89.538 C 200.888 83.947,201.988 82.417,203.055 83.106 M203.970 113.852 C 206.214 116.705,211.181 128.430,210.689 129.712 C 210.155 131.103,208.507 130.990,206.796 129.444 C 205.836 128.577,204.788 128.000,204.173 128.000 C 203.609 128.000,202.832 127.831,202.446 127.625 C 201.776 127.266,199.592 128.292,196.996 130.184 C 195.976 130.928,194.261 130.202,194.080 128.950 C 193.831 127.228,197.845 118.473,200.614 114.700 C 202.209 112.526,202.808 112.375,203.970 113.852 M171.200 124.444 C 181.973 127.317,193.524 136.511,196.662 144.709 C 197.910 147.972,197.161 147.586,187.910 140.200 C 185.982 138.661,184.972 137.951,181.153 135.453 C 180.189 134.822,178.860 133.809,178.200 133.203 C 177.540 132.596,176.512 131.852,175.916 131.550 C 175.320 131.247,173.520 130.199,171.916 129.219 C 162.056 123.199,161.869 121.955,171.200 124.444 M240.991 123.986 C 241.252 124.407,240.351 125.017,232.600 129.659 C 221.400 136.366,216.375 140.050,210.603 145.780 L 207.400 148.960 207.275 147.686 C 206.864 143.494,215.268 133.650,223.068 129.187 C 229.609 125.445,240.025 122.422,240.991 123.986 M175.000 145.407 C 179.478 146.584,184.000 149.212,184.000 150.636 C 184.000 151.401,181.784 151.372,179.550 150.577 C 178.588 150.235,176.720 149.805,175.400 149.621 C 171.107 149.025,158.762 146.824,158.376 146.585 C 155.372 144.729,168.802 143.776,175.000 145.407 M245.912 145.306 C 246.612 145.600,247.033 146.009,246.877 146.242 C 246.215 147.232,223.084 151.244,222.338 150.498 C 219.002 147.162,239.558 142.635,245.912 145.306 M190.198 163.100 C 189.399 163.925,188.205 165.538,187.543 166.685 C 186.373 168.713,186.252 168.797,183.070 169.782 C 181.272 170.339,178.478 171.594,176.863 172.570 C 175.248 173.547,173.673 174.249,173.363 174.130 C 172.508 173.802,172.610 169.906,173.500 168.891 C 175.204 166.950,187.463 161.724,190.525 161.633 L 191.650 161.600 190.198 163.100 M218.427 162.238 C 228.105 165.078,233.276 168.856,232.578 172.575 C 232.237 174.395,231.846 174.375,228.152 172.348 C 226.496 171.439,223.850 170.290,222.271 169.795 C 219.340 168.876,219.175 168.734,217.100 165.344 C 216.714 164.715,216.023 163.615,215.563 162.900 C 214.543 161.314,214.956 161.219,218.427 162.238 M206.172 167.513 C 209.962 169.547,210.232 170.106,208.200 171.725 C 207.320 172.426,205.771 173.764,204.759 174.700 C 202.504 176.782,202.804 176.795,200.127 174.500 C 198.908 173.455,197.345 172.115,196.655 171.523 C 195.044 170.140,195.383 169.520,198.841 167.522 C 202.042 165.673,202.741 165.672,206.172 167.513 M166.008 177.024 C 166.897 179.697,166.563 181.200,165.078 181.200 C 164.859 181.200,163.417 181.928,161.874 182.818 C 157.697 185.226,156.881 184.096,159.856 180.021 C 164.744 173.324,164.772 173.311,166.008 177.024 M192.766 177.144 C 196.141 180.236,196.140 180.307,192.684 181.967 C 191.318 182.624,188.869 184.251,187.241 185.583 L 184.282 188.005 182.241 186.088 C 181.119 185.033,179.525 183.661,178.700 183.038 C 176.413 181.311,176.680 180.730,180.900 178.262 C 189.079 173.477,188.792 173.504,192.766 177.144 M221.767 177.037 C 228.673 180.805,228.967 181.164,226.715 183.097 C 226.008 183.704,224.505 185.055,223.376 186.100 C 220.860 188.428,221.188 188.445,218.379 185.845 C 217.099 184.660,214.645 182.981,212.926 182.113 C 209.069 180.167,209.053 179.906,212.600 176.862 C 216.095 173.863,215.945 173.860,221.767 177.037 M243.521 177.333 C 248.938 184.150,249.581 187.166,244.916 183.882 C 243.595 182.951,241.588 181.756,240.457 181.227 C 237.949 180.052,237.945 180.015,239.794 174.900 C 240.188 173.809,241.295 174.532,243.521 177.333 M207.885 188.070 C 214.596 192.260,214.718 192.464,211.529 194.200 C 210.390 194.820,208.075 196.649,206.385 198.264 C 202.652 201.829,202.946 201.821,199.421 198.472 C 197.842 196.972,195.530 195.161,194.283 194.448 C 191.147 192.653,190.952 192.026,193.113 190.680 C 193.711 190.307,195.910 188.928,198.000 187.616 C 202.733 184.643,202.368 184.626,207.885 188.070 M176.100 188.642 C 180.188 192.171,180.427 192.897,177.724 193.577 C 175.080 194.243,171.990 195.831,169.775 197.661 C 167.504 199.538,167.136 199.479,166.550 197.146 C 166.058 195.188,165.028 192.970,164.135 191.950 C 163.368 191.074,164.905 189.232,168.156 187.130 C 171.470 184.989,171.980 185.086,176.100 188.642 M237.038 187.138 C 241.590 190.102,242.062 190.883,240.606 193.030 C 239.629 194.469,238.807 196.761,238.802 198.057 C 238.798 199.305,237.641 199.171,235.916 197.723 C 233.853 195.992,229.354 193.764,227.176 193.396 C 224.604 192.961,224.894 192.491,231.200 186.871 C 233.044 185.228,234.184 185.280,237.038 187.138 M154.509 195.919 C 156.219 198.054,158.961 201.278,160.603 203.084 C 164.008 206.831,164.011 206.916,160.770 208.775 C 158.543 210.053,155.851 212.558,153.668 215.383 C 152.527 216.860,151.622 216.457,150.926 214.163 C 149.552 209.628,149.196 207.953,149.419 207.066 C 149.557 206.516,149.411 205.585,149.086 204.943 C 147.355 201.524,147.498 196.888,149.453 193.100 C 150.365 191.332,151.213 191.805,154.509 195.919 M256.600 194.600 C 258.211 197.821,258.471 202.064,257.234 204.933 C 256.775 205.996,256.400 207.651,256.400 208.610 C 256.400 210.772,254.549 215.892,253.581 216.410 C 252.990 216.727,252.614 216.454,251.442 214.857 C 249.515 212.232,246.916 209.898,244.233 208.384 C 243.005 207.691,241.907 206.973,241.793 206.788 C 241.678 206.603,243.651 204.094,246.175 201.211 C 248.699 198.329,251.448 195.080,252.282 193.992 C 254.292 191.371,255.038 191.476,256.600 194.600 M188.607 199.070 C 190.623 200.424,195.574 204.448,196.510 205.492 C 197.464 206.558,197.139 207.182,194.895 208.594 C 193.853 209.250,191.806 211.004,190.347 212.493 C 187.153 215.751,187.697 215.727,184.461 212.760 C 181.386 209.939,179.265 208.612,175.862 207.380 C 171.996 205.981,172.538 205.263,180.882 200.725 C 186.549 197.643,186.499 197.654,188.607 199.070 M224.327 200.785 C 232.779 205.085,233.347 205.903,229.094 207.646 C 225.785 209.002,223.260 210.723,220.880 213.245 C 218.505 215.761,218.305 215.732,214.989 212.382 C 213.455 210.833,211.345 209.014,210.300 208.341 C 207.332 206.428,207.737 205.759,215.321 200.049 C 218.660 197.535,217.803 197.465,224.327 200.785 M172.141 213.941 C 176.280 215.899,179.640 218.397,182.415 221.580 C 183.617 222.959,185.140 224.708,185.801 225.469 C 187.245 227.130,187.713 227.012,189.600 224.510 C 193.060 219.920,200.875 212.800,202.452 212.800 C 204.036 212.800,211.744 219.582,216.037 224.755 C 218.190 227.348,218.780 227.300,220.760 224.378 C 223.933 219.693,233.830 212.400,237.012 212.400 C 238.998 212.400,245.317 218.654,246.996 222.281 C 247.586 223.556,248.200 224.870,248.360 225.200 C 248.521 225.530,249.397 226.164,250.309 226.608 C 260.998 231.825,261.553 260.091,251.000 261.786 C 248.573 262.176,248.268 262.468,247.352 265.281 C 246.330 268.421,243.738 273.462,243.000 273.745 C 242.708 273.857,241.598 273.323,240.534 272.557 C 236.726 269.818,228.907 265.200,228.078 265.200 C 227.490 265.200,226.905 265.776,226.149 267.100 C 223.085 272.465,218.339 278.400,217.113 278.400 C 216.340 278.400,211.150 274.665,205.879 270.315 C 202.786 267.763,202.910 267.728,196.125 273.028 C 187.778 279.549,188.526 279.308,185.840 276.339 C 183.937 274.236,181.222 270.439,178.662 266.300 C 178.288 265.695,177.701 265.200,177.357 265.200 C 176.595 265.200,168.825 269.858,165.485 272.316 C 163.630 273.682,162.907 274.011,162.428 273.709 C 161.338 273.023,159.295 269.202,158.172 265.749 C 157.500 263.683,156.844 262.352,156.444 262.244 C 156.090 262.148,155.114 261.954,154.276 261.812 C 143.685 260.023,144.208 229.652,154.879 226.779 C 156.249 226.410,156.502 226.101,157.942 223.027 C 159.684 219.310,161.825 216.738,165.344 214.134 C 168.190 212.029,168.102 212.031,172.141 213.941 M143.172 215.100 C 143.920 216.365,145.016 218.030,145.608 218.800 C 147.863 221.733,147.863 221.720,145.392 224.409 C 144.125 225.786,142.546 228.116,141.732 229.808 C 139.422 234.607,138.904 232.300,139.747 220.955 C 140.440 211.617,140.776 211.044,143.172 215.100 M264.757 214.300 C 265.248 216.202,266.126 228.421,265.940 230.769 C 265.732 233.397,265.121 233.157,263.431 229.783 C 262.595 228.115,260.941 225.702,259.756 224.421 C 257.118 221.572,257.118 221.728,259.746 218.245 C 260.927 216.680,262.225 214.815,262.632 214.100 C 263.604 212.393,264.280 212.457,264.757 214.300 M168.200 227.547 C 163.171 228.869,160.274 232.313,160.247 237.000 C 160.221 241.552,161.908 243.494,168.624 246.643 C 173.229 248.802,174.400 249.726,174.400 251.200 C 174.400 255.225,168.384 255.080,165.511 250.987 L 164.200 249.119 162.026 249.372 C 158.601 249.770,158.014 250.891,159.602 254.005 C 164.996 264.576,182.900 262.274,182.900 251.009 C 182.900 246.033,180.640 243.387,174.000 240.585 C 170.083 238.932,168.800 237.898,168.800 236.392 C 168.800 233.301,172.906 232.984,176.450 235.801 C 181.104 239.500,183.869 234.795,180.075 229.634 C 178.760 227.846,171.749 226.614,168.200 227.547 M198.295 228.500 C 197.933 228.775,196.835 231.250,195.855 234.000 C 194.875 236.750,192.527 243.273,190.637 248.495 C 186.299 260.479,186.298 260.407,190.874 260.394 C 194.109 260.385,194.797 259.852,196.189 256.276 C 197.650 252.523,197.803 252.414,201.624 252.406 C 205.390 252.398,205.738 252.651,207.120 256.394 C 208.429 259.941,209.063 260.386,212.824 260.394 C 216.492 260.402,217.118 259.891,216.293 257.562 C 215.950 256.593,214.469 252.470,213.001 248.400 C 211.534 244.330,209.438 238.300,208.344 235.000 C 206.025 228.006,206.020 228.000,202.000 228.000 C 200.180 228.000,198.688 228.201,198.295 228.500 M223.460 228.598 C 222.871 229.186,222.800 230.834,222.800 243.952 C 222.800 261.138,222.551 260.092,226.704 260.327 C 231.143 260.577,231.200 260.506,231.200 254.662 C 231.200 248.418,231.258 248.327,235.480 247.965 C 246.150 247.048,249.700 234.351,240.683 229.355 C 238.043 227.891,224.750 227.307,223.460 228.598 M235.636 235.948 C 237.806 237.706,236.299 241.200,233.370 241.200 C 231.744 241.200,231.200 240.374,231.200 237.906 C 231.200 235.194,233.467 234.193,235.636 235.948 M202.386 243.174 C 203.080 244.471,202.885 245.200,201.843 245.200 C 200.717 245.200,200.375 244.551,200.840 243.300 C 201.250 242.195,201.837 242.147,202.386 243.174 M266.258 256.572 C 266.551 258.711,265.361 265.369,264.567 266.027 C 264.151 266.373,263.602 266.064,262.115 264.647 L 260.200 262.822 261.446 260.511 C 262.132 259.240,263.011 257.210,263.399 256.000 C 264.659 252.077,265.670 252.280,266.258 256.572 M141.773 255.900 C 142.169 257.165,143.011 259.190,143.645 260.400 C 145.132 263.236,145.132 263.234,142.926 264.953 C 140.707 266.682,140.533 266.572,139.777 262.957 C 138.334 256.061,139.991 250.202,141.773 255.900 M152.670 269.543 C 153.730 272.504,155.110 275.453,156.645 278.035 C 158.144 280.558,157.819 281.200,155.043 281.200 C 153.281 281.200,152.625 281.001,151.634 280.167 C 150.959 279.599,149.370 278.629,148.103 278.012 C 143.083 275.564,142.967 274.302,147.350 269.760 C 150.932 266.047,151.412 266.028,152.670 269.543 M257.242 269.154 C 258.649 270.449,260.114 272.051,260.499 272.714 L 261.197 273.919 259.499 275.707 C 258.564 276.690,256.990 277.902,256.000 278.401 C 255.010 278.900,253.770 279.733,253.245 280.254 C 252.489 281.003,251.862 281.200,250.225 281.200 C 247.002 281.200,246.969 280.910,249.605 275.859 C 250.885 273.407,252.159 270.590,252.436 269.600 C 253.422 266.078,253.856 266.038,257.242 269.154 M177.938 277.100 C 179.235 279.025,181.039 281.497,181.948 282.593 C 185.153 286.459,182.349 287.715,173.105 286.552 C 169.210 286.062,165.281 283.099,166.307 281.426 C 166.998 280.299,174.413 273.600,174.968 273.600 C 175.304 273.600,176.641 275.175,177.938 277.100 M234.775 277.300 C 239.670 282.035,239.681 282.058,237.967 283.863 C 235.791 286.152,234.045 286.726,229.108 286.775 C 221.260 286.853,220.715 286.079,224.771 280.612 C 226.295 278.557,228.007 276.139,228.576 275.238 C 230.011 272.964,230.440 273.107,234.775 277.300 M207.461 280.878 C 212.769 286.114,212.817 286.289,209.538 288.409 C 206.923 290.099,206.398 290.241,205.179 289.589 C 204.645 289.303,203.617 289.324,201.798 289.660 C 199.491 290.085,199.012 290.058,197.706 289.436 C 195.772 288.513,193.200 286.464,193.200 285.844 C 193.200 285.313,202.071 276.400,202.600 276.400 C 202.778 276.400,204.965 278.415,207.461 280.878 M164.870 290.002 C 168.391 294.314,168.588 295.142,166.276 295.897 C 164.619 296.438,163.951 296.228,161.037 294.251 C 160.275 293.734,158.941 293.197,158.073 293.058 C 154.031 292.412,153.968 290.688,157.884 287.886 C 161.247 285.480,161.153 285.452,164.870 290.002 M246.746 287.364 C 251.319 290.728,251.291 291.107,246.306 293.366 C 244.487 294.190,242.522 295.120,241.938 295.432 C 240.021 296.458,237.200 295.921,237.200 294.530 C 237.200 294.177,238.153 292.699,239.318 291.244 C 240.483 289.790,241.845 288.015,242.345 287.300 C 243.505 285.642,244.424 285.655,246.746 287.364 M192.579 294.970 C 198.131 300.455,198.043 300.734,190.914 300.265 C 188.835 300.129,185.810 300.201,184.191 300.427 C 181.319 300.826,181.190 300.806,178.797 299.599 C 175.786 298.078,175.835 297.913,180.048 295.412 C 181.911 294.305,184.238 292.823,185.218 292.118 C 187.753 290.294,187.905 290.352,192.579 294.970 M220.572 292.488 C 221.896 293.417,224.331 294.902,225.984 295.788 C 227.637 296.675,228.992 297.580,228.995 297.800 C 229.004 298.505,223.886 300.856,222.800 300.645 C 222.250 300.539,220.918 300.261,219.840 300.027 C 218.504 299.737,217.104 299.728,215.440 299.998 C 212.433 300.486,209.185 300.505,208.448 300.038 C 207.742 299.591,216.199 290.876,217.383 290.830 C 217.813 290.814,219.248 291.560,220.572 292.488 M175.411 304.900 C 179.449 309.714,179.206 310.242,174.076 307.805 C 168.249 305.038,167.522 304.054,169.814 302.041 C 171.721 300.367,171.525 300.267,175.411 304.900 M235.900 302.319 C 238.130 303.993,237.385 304.934,231.674 307.660 C 226.373 310.190,225.747 309.754,229.003 305.800 C 232.213 301.900,233.511 300.702,234.129 301.066 C 234.388 301.218,235.185 301.782,235.900 302.319 M206.156 303.899 C 206.840 304.723,209.073 307.080,211.118 309.136 C 214.274 312.308,214.760 312.966,214.330 313.484 C 213.452 314.542,209.897 313.897,207.102 312.172 C 203.691 310.067,200.752 310.241,197.006 312.772 C 195.056 314.090,190.400 314.387,190.400 313.194 C 190.400 312.978,192.605 310.622,195.300 307.958 C 200.332 302.983,200.705 302.756,204.356 302.447 C 204.662 302.421,205.472 303.074,206.156 303.899 " stroke="none" fill="#000000" fill-rule="evenodd"/>
    </g>
</svg>